<svg xmlns="http://www.w3.org/2000/svg" viewBox="0 0 1000 1000"><defs><style>.cls-1{fill:#fefefe;}.cls-2{fill:#ffca36;}.cls-3{fill:#4fb4ed;}.cls-4{fill:#3c6;}</style></defs><g id="Icon"><circle class="cls-1" cx="501.3" cy="500" r="195.34"/><circle class="cls-2" cx="648.1" cy="392.59" r="41.1"/><rect class="cls-2" x="303.37" y="515.59" width="61.87" height="124.88"/><path class="cls-3" d="M675.38,446.78,513.61,320.32a20,20,0,0,0-24.63,0L327.21,446.78a20,20,0,0,0-7.68,15.76V605.93a20,20,0,0,0,20,20h38.55l-.79-10.73a10,10,0,0,0-10-9.27H349.53a10,10,0,0,1-10-10V467.41a10,10,0,0,1,3.84-7.87L501.29,336.07h0L659.22,459.54a10,10,0,0,1,3.84,7.87V595.93a10,10,0,0,1-10,10H635.27a10,10,0,0,0-10,9.27l-.79,10.73h38.55a20,20,0,0,0,20-20V462.54A20,20,0,0,0,675.38,446.78Z"/><path class="cls-4" d="M505.44,511.55h28l-8.3-8.47C518.48,507.59,511.63,510.56,505.44,511.55Z"/><path class="cls-4" d="M476.86,503.08l-8.3,8.47h28C490.4,510.56,483.55,507.59,476.86,503.08Z"/><circle class="cls-4" cx="501.02" cy="655.71" r="15.23"/><circle class="cls-4" cx="459.79" cy="652.13" r="11.65"/><circle class="cls-4" cx="543.6" cy="652.13" r="11.65"/><path class="cls-3" d="M502.29,575a5.89,5.89,0,0,0-4.08,10.16l-1.83,7.56h11.81l-1.83-7.56A5.89,5.89,0,0,0,502.29,575Z"/><path class="cls-3" d="M502.29,557.17a7.41,7.41,0,0,0-7.4,7.39v4.78h14.79v-4.78A7.4,7.4,0,0,0,502.29,557.17Z"/><path class="cls-3" d="M601,515.59H401.56a20,20,0,0,0-19.95,21.46l6.49,88.88H614.49L621,537.05A20,20,0,0,0,601,515.59Zm-79.36,76a9.25,9.25,0,0,1-9.25,9.25H492.15a9.25,9.25,0,0,1-9.25-9.25v-13a9.25,9.25,0,0,1,6-8.66v-5.37a13.37,13.37,0,0,1,26.73,0v5.37a9.25,9.25,0,0,1,6,8.66Z"/><path class="cls-4" d="M538.14,436.27a57.54,57.54,0,0,0-30.28-11.89,37.71,37.71,0,0,0-22.78,5.3l-9.19,6.45a8.75,8.75,0,0,1-12.55-2.68L448.16,447c.06.95.1,1.51.1,1.51h-.13c.49,31.48,33.35,59.41,52.89,59.41S553.41,480,553.9,448.52c0-.24,0-.57,0-1Z"/><path class="cls-4" d="M559,418.89l-14.4-9.64a13.28,13.28,0,0,1-4.56-5.08,41.28,41.28,0,0,0-25.42-21.28l-12.33-3.6a1.46,1.46,0,0,0-1.61,2.22,1.82,1.82,0,0,1-1.75,2.84l-22.39-3.13a1.59,1.59,0,0,0-1.48,2.55l.47.59a1.43,1.43,0,0,1-1,2.3l-12.85,1.45a1.59,1.59,0,0,0-.34,3.08l2.85,1a.94.94,0,0,1,.15,1.7l0,0a11.3,11.3,0,0,1-3.42,1.39,14.94,14.94,0,0,0-7.07,4.19,17.19,17.19,0,0,0-3.15,4.24v0a2,2,0,0,0,2.07,2.8l.34-.06a.85.85,0,0,1,.81,1.37c-2.28,2.81-6.56,8.17-7.38,9.78q-.5,1-.84,1.68a7.39,7.39,0,0,0-.75,3.23l.31,1.05A147.75,147.75,0,0,1,447.79,439l18.86-22.76,4.92,10.75,8.15-5.71a47.78,47.78,0,0,1,29-6.81c10.83,1,16.68,2.5,24.29,7.63a61.92,61.92,0,0,1,7.51,6l13.4,12.34c-.08-1.14,1-6.32,2.18-6.2h0a1.15,1.15,0,0,0,1.57-1.5l-2.6-5.82A3.66,3.66,0,0,1,557,422l1.76-.73A1.37,1.37,0,0,0,559,418.89Z"/></g></svg>